<svg width="24" height="24" viewBox="0 0 24 24" fill="none" xmlns="http://www.w3.org/2000/svg">
<g clip-path="url(#clip0_1613_1264)">
<path d="M20.6007 13.2727H3.93096C3.11262 13.2727 2.44922 13.9361 2.44922 14.7545V22.5337C2.44922 23.352 3.11262 24.0154 3.93096 24.0154H20.6007C21.419 24.0154 22.0824 23.352 22.0824 22.5337V14.7545C22.0824 13.9361 21.419 13.2727 20.6007 13.2727Z" fill="#0049CF"/>
<path d="M7.07969 5.38611H3.74575C3.0297 5.38611 2.44922 5.96659 2.44922 6.68264V10.0166C2.44922 10.7326 3.0297 11.3131 3.74575 11.3131H7.07969C7.79574 11.3131 8.37622 10.7326 8.37622 10.0166V6.68264C8.37622 5.96659 7.79574 5.38611 7.07969 5.38611Z" fill="#0095FF"/>
<path d="M20.5759 0.0155029H12.7967C11.9783 0.0155029 11.3149 0.678903 11.3149 1.49725V9.83208C11.3149 10.6504 11.9783 11.3138 12.7967 11.3138H20.5759C21.3942 11.3138 22.0576 10.6504 22.0576 9.83208V1.49725C22.0576 0.678903 21.3942 0.0155029 20.5759 0.0155029Z" fill="#3CD5FF"/>
</g>
<defs>
<clipPath id="clip0_1613_1264">
<rect width="24" height="24" fill="white"/>
</clipPath>
</defs>
</svg>
