<svg width="1100" height="439" viewBox="0 0 1100 439" fill="none" xmlns="http://www.w3.org/2000/svg">
<g clip-path="url(#clip0_8058_16102)">
<rect x="183" y="310" width="41" height="41" fill="#C23515"/>
<rect x="305" y="351" width="41" height="41" fill="#C23515"/>
<rect x="61" y="269" width="41" height="41" fill="#C23515"/>
<rect x="20" y="351" width="41" height="41" fill="#C23515"/>
<rect x="753" y="351" width="41" height="41" fill="#C23515"/>
<rect x="875" y="269" width="41" height="41" fill="#C23515"/>
<rect x="956" y="392" width="41" height="41" fill="#C23515"/>
<rect x="1038" y="351" width="41" height="41" fill="#C23515"/>
<rect x="997" y="310" width="41" height="41" fill="#C23515"/>
<rect x="61" y="392" width="41" height="40" fill="#C23515"/>
<path d="M1363.59 106V106.309H1364V514.024H1363.59V514.333H-264.593V514.024H-265V106.309H-264.593V106H1363.59ZM-264.185 473.662V513.616H-224.294V473.662H-264.185ZM-223.479 473.662V513.616H-183.587V473.662H-223.479ZM-182.772 473.662V513.616H-142.883V473.662H-182.772ZM-142.067 473.662V513.616H-102.176V473.662H-142.067ZM-101.36 473.662V513.616H-61.4697V473.662H-101.36ZM-60.6543 473.662V513.616H-20.7646V473.662H-60.6543ZM-19.9492 473.662V513.616H19.9414V473.662H-19.9492ZM20.7568 473.662V513.616H60.6475V473.662H20.7568ZM61.4629 473.662V513.616H101.353V473.662H61.4629ZM102.168 473.662V513.616H142.059V473.662H102.168ZM142.874 473.662V513.616H182.766V473.662H142.874ZM183.581 473.662V513.616H223.471V473.662H183.581ZM224.286 473.662V513.616H264.177V473.662H224.286ZM264.992 473.662V513.616H304.883V473.662H264.992ZM305.698 473.662V513.616H345.588V473.662H305.698ZM346.403 473.662V513.616H386.294V473.662H346.403ZM387.109 473.662V513.616H427.001V473.662H387.109ZM427.815 473.662V513.616H467.705V473.662H427.815ZM468.521 473.662V513.616H508.412V473.662H468.521ZM509.228 473.662V513.616H549.067V473.662H509.228ZM590.589 473.662V513.616H630.479V473.662H590.589ZM631.295 473.662V513.616H671.185V473.662H631.295ZM672 473.662V513.616H711.891V473.662H672ZM712.706 473.662V513.616H752.598V473.662H712.706ZM753.413 473.662V513.616H793.303V473.662H753.413ZM794.117 473.662V513.616H834.009V473.662H794.117ZM834.824 473.662V513.616H874.715V473.662H834.824ZM875.53 473.662V513.616H915.42V473.662H875.53ZM916.235 473.662V513.616H956.126V473.662H916.235ZM956.941 473.662V513.616H996.833V473.662H956.941ZM997.647 473.662V513.616H1037.54V473.662H997.647ZM1038.35 473.662V513.616H1078.24V473.662H1038.35ZM1079.06 473.662V513.616H1118.95V473.662H1079.06ZM1119.77 473.662V513.616H1159.66V473.662H1119.77ZM1160.47 473.662V513.616H1200.36V473.662H1160.47ZM1201.18 473.662V513.616H1241.07V473.662H1201.18ZM1241.88 473.662V513.616H1281.77V473.662H1241.88ZM1282.59 473.662V513.616H1322.48V473.662H1282.59ZM1323.29 473.662V513.616H1363.19V473.662H1323.29ZM549.934 473.662V513.616H589.773V473.662H549.934ZM-264.185 432.89V472.845H-224.294V432.89H-264.185ZM-223.479 432.89V472.845H-183.587V432.89H-223.479ZM-182.772 432.89V472.845H-142.883V432.89H-182.772ZM-142.067 432.89V472.845H-102.176V432.89H-142.067ZM-101.36 432.89V472.845H-61.4697V432.89H-101.36ZM-60.6543 432.89V472.845H-20.7646V432.89H-60.6543ZM-19.9492 432.89V472.845H19.9414V432.89H-19.9492ZM20.7568 432.89V472.845H60.6475V432.89H20.7568ZM61.4629 432.89V472.845H101.353V432.89H61.4629ZM102.168 432.89V472.845H142.059V432.89H102.168ZM142.874 432.89V472.845H182.766V432.89H142.874ZM183.581 432.89V472.845H223.471V432.89H183.581ZM224.286 432.89V472.845H264.177V432.89H224.286ZM264.992 432.89V472.845H304.883V432.89H264.992ZM305.698 432.89V472.845H345.588V432.89H305.698ZM346.403 432.89V472.845H386.294V432.89H346.403ZM387.109 432.89V472.845H427.001V432.89H387.109ZM427.815 432.89V472.845H467.705V432.89H427.815ZM468.521 432.89V472.845H508.412V432.89H468.521ZM509.228 432.89V472.845H549.067V432.89H509.228ZM590.589 432.89V472.845H630.479V432.89H590.589ZM631.295 432.89V472.845H671.185V432.89H631.295ZM672 432.89V472.845H711.891V432.89H672ZM712.706 432.89V472.845H752.598V432.89H712.706ZM753.413 432.89V472.845H793.303V432.89H753.413ZM794.117 432.89V472.845H834.009V432.89H794.117ZM834.824 432.89V472.845H874.715V432.89H834.824ZM875.53 432.89V472.845H915.42V432.89H875.53ZM916.235 432.89V472.845H956.126V432.89H916.235ZM956.941 432.89V472.845H996.833V432.89H956.941ZM997.647 432.89V472.845H1037.54V432.89H997.647ZM1038.35 432.89V472.845H1078.24V432.89H1038.35ZM1079.06 432.89V472.845H1118.95V432.89H1079.06ZM1119.77 432.89V472.845H1159.66V432.89H1119.77ZM1160.47 432.89V472.845H1200.36V432.89H1160.47ZM1201.18 432.89V472.845H1241.07V432.89H1201.18ZM1241.88 432.89V472.845H1281.77V432.89H1241.88ZM1282.59 432.89V472.845H1322.48V432.89H1282.59ZM1323.29 432.89V472.845H1363.19V432.89H1323.29ZM549.934 432.89V472.845H589.773V432.89H549.934ZM-264.185 392.118V432.073H-224.294V392.118H-264.185ZM-223.479 392.118V432.073H-183.587V392.118H-223.479ZM-182.772 392.118V432.073H-142.883V392.118H-182.772ZM-142.067 392.118V432.073H-102.176V392.118H-142.067ZM-101.36 392.118V432.073H-61.4697V392.118H-101.36ZM-60.6543 392.118V432.073H-20.7646V392.118H-60.6543ZM-19.9492 392.118V432.073H19.9414V392.118H-19.9492ZM20.7568 392.118V432.073H60.6475V392.118H20.7568ZM61.4629 392.118V432.073H101.353V392.118H61.4629ZM102.168 392.118V432.073H142.059V392.118H102.168ZM142.874 392.118V432.073H182.766V392.118H142.874ZM183.581 392.118V432.073H223.471V392.118H183.581ZM224.286 392.118V432.073H264.177V392.118H224.286ZM264.992 392.118V432.073H304.883V392.118H264.992ZM305.698 392.118V432.073H345.588V392.118H305.698ZM346.403 392.118V432.073H386.294V392.118H346.403ZM387.109 392.118V432.073H427.001V392.118H387.109ZM427.815 392.118V432.073H467.705V392.118H427.815ZM468.521 392.118V432.073H508.412V392.118H468.521ZM509.228 392.118V432.073H549.067V392.118H509.228ZM590.589 392.117V432.073H630.479V392.117H590.589ZM631.295 392.117V432.073H671.185V392.117H631.295ZM672 392.117V432.073H711.891V392.117H672ZM712.706 392.117V432.073H752.598V392.117H712.706ZM753.413 392.117V432.073H793.303V392.117H753.413ZM794.117 392.117V432.073H834.009V392.117H794.117ZM834.824 392.117V432.073H874.715V392.117H834.824ZM875.53 392.117V432.073H915.42V392.117H875.53ZM916.235 392.117V432.073H956.126V392.117H916.235ZM956.941 392.117V432.073H996.833V392.117H956.941ZM997.647 392.117V432.073H1037.54V392.117H997.647ZM1038.35 392.117V432.073H1078.24V392.117H1038.35ZM1079.06 392.117V432.073H1118.95V392.117H1079.06ZM1119.77 392.117V432.073H1159.66V392.117H1119.77ZM1160.47 392.117V432.073H1200.36V392.117H1160.47ZM1201.18 392.117V432.073H1241.07V392.117H1201.18ZM1241.88 392.117V432.073H1281.77V392.117H1241.88ZM1282.59 392.117V432.073H1322.48V392.117H1282.59ZM1323.29 392.117V432.073H1363.19V392.117H1323.29ZM549.934 392.117V432.073H589.773V392.117H549.934ZM-264.185 351.347V391.301H-224.294V351.347H-264.185ZM-223.479 351.347V391.301H-183.587V351.347H-223.479ZM-182.772 351.347V391.301H-142.883V351.347H-182.772ZM-142.067 351.347V391.301H-102.176V351.347H-142.067ZM-101.36 351.347V391.301H-61.4697V351.347H-101.36ZM-60.6543 351.347V391.301H-20.7646V351.347H-60.6543ZM-19.9492 351.347V391.301H19.9414V351.347H-19.9492ZM20.7568 351.347V391.301H60.6475V351.347H20.7568ZM61.4629 351.347V391.301H101.353V351.347H61.4629ZM102.168 351.347V391.301H142.059V351.347H102.168ZM142.874 351.347V391.301H182.766V351.347H142.874ZM183.581 351.347V391.301H223.471V351.347H183.581ZM224.286 351.347V391.301H264.177V351.347H224.286ZM264.992 351.347V391.301H304.883V351.347H264.992ZM305.698 351.347V391.301H345.588V351.347H305.698ZM346.403 351.347V391.301H386.294V351.347H346.403ZM387.109 351.347V391.301H427.001V351.347H387.109ZM427.815 351.347V391.301H467.705V351.347H427.815ZM468.521 351.347V391.301H508.412V351.347H468.521ZM509.228 351.347V391.301H549.067V351.347H509.228ZM590.589 351.347V391.301H630.479V351.347H590.589ZM631.295 351.347V391.301H671.185V351.347H631.295ZM672 351.347V391.301H711.891V351.347H672ZM712.706 351.347V391.301H752.598V351.347H712.706ZM753.413 351.347V391.301H793.303V351.347H753.413ZM794.117 351.347V391.301H834.009V351.347H794.117ZM834.824 351.347V391.301H874.715V351.347H834.824ZM875.53 351.347V391.301H915.42V351.347H875.53ZM916.235 351.347V391.301H956.126V351.347H916.235ZM956.941 351.347V391.301H996.833V351.347H956.941ZM997.647 351.347V391.301H1037.54V351.347H997.647ZM1038.35 351.347V391.301H1078.24V351.347H1038.35ZM1079.06 351.347V391.301H1118.95V351.347H1079.06ZM1119.77 351.347V391.301H1159.66V351.347H1119.77ZM1160.47 351.347V391.301H1200.36V351.347H1160.47ZM1201.18 351.347V391.301H1241.07V351.347H1201.18ZM1241.88 351.347V391.301H1281.77V351.347H1241.88ZM1282.59 351.347V391.301H1322.48V351.347H1282.59ZM1323.29 351.347V391.301H1363.19V351.347H1323.29ZM549.934 351.347V391.301H589.773V351.347H549.934ZM-264.185 310.575V350.53H-224.294V310.575H-264.185ZM-223.479 310.575V350.53H-183.587V310.575H-223.479ZM-182.772 310.575V350.53H-142.883V310.575H-182.772ZM-142.067 310.575V350.53H-102.176V310.575H-142.067ZM-101.36 310.575V350.53H-61.4697V310.575H-101.36ZM-60.6543 310.575V350.53H-20.7646V310.575H-60.6543ZM-19.9492 310.575V350.53H19.9414V310.575H-19.9492ZM20.7568 310.575V350.53H60.6475V310.575H20.7568ZM61.4629 310.575V350.53H101.353V310.575H61.4629ZM102.168 310.575V350.53H142.059V310.575H102.168ZM142.874 310.575V350.53H182.766V310.575H142.874ZM183.581 310.575V350.53H223.471V310.575H183.581ZM224.286 310.575V350.53H264.177V310.575H224.286ZM264.992 310.575V350.53H304.883V310.575H264.992ZM305.698 310.575V350.53H345.588V310.575H305.698ZM346.403 310.575V350.53H386.294V310.575H346.403ZM387.109 310.575V350.53H427.001V310.575H387.109ZM427.815 310.575V350.53H467.705V310.575H427.815ZM468.521 310.575V350.53H508.412V310.575H468.521ZM509.228 310.575V350.53H549.067V310.575H509.228ZM590.589 310.575V350.53H630.479V310.575H590.589ZM631.295 310.575V350.53H671.185V310.575H631.295ZM672 310.575V350.53H711.891V310.575H672ZM712.706 310.575V350.53H752.598V310.575H712.706ZM753.413 310.575V350.53H793.303V310.575H753.413ZM794.117 310.575V350.53H834.009V310.575H794.117ZM834.824 310.575V350.53H874.715V310.575H834.824ZM875.53 310.575V350.53H915.42V310.575H875.53ZM916.235 310.575V350.53H956.126V310.575H916.235ZM956.941 310.575V350.53H996.833V310.575H956.941ZM997.647 310.575V350.53H1037.54V310.575H997.647ZM1038.35 310.575V350.53H1078.24V310.575H1038.35ZM1079.06 310.575V350.53H1118.95V310.575H1079.06ZM1119.77 310.575V350.53H1159.66V310.575H1119.77ZM1160.47 310.575V350.53H1200.36V310.575H1160.47ZM1201.18 310.575V350.53H1241.07V310.575H1201.18ZM1241.88 310.575V350.53H1281.77V310.575H1241.88ZM1282.59 310.575V350.53H1322.48V310.575H1282.59ZM1323.29 310.575V350.53H1363.19V310.575H1323.29ZM549.934 310.575V350.53H589.773V310.575H549.934ZM-264.185 269.803V309.758H-224.294V269.803H-264.185ZM-223.479 269.803V309.758H-183.587V269.803H-223.479ZM-182.772 269.803V309.758H-142.883V269.803H-182.772ZM-142.067 269.803V309.758H-102.176V269.803H-142.067ZM-101.36 269.803V309.758H-61.4697V269.803H-101.36ZM-60.6543 269.803V309.758H-20.7646V269.803H-60.6543ZM-19.9492 269.803V309.758H19.9414V269.803H-19.9492ZM20.7568 269.803V309.758H60.6475V269.803H20.7568ZM61.4629 269.803V309.758H101.353V269.803H61.4629ZM102.168 269.803V309.758H142.059V269.803H102.168ZM142.874 269.803V309.758H182.766V269.803H142.874ZM183.581 269.803V309.758H223.471V269.803H183.581ZM224.286 269.803V309.758H264.177V269.803H224.286ZM264.992 269.803V309.758H304.883V269.803H264.992ZM305.698 269.803V309.758H345.588V269.803H305.698ZM346.403 269.803V309.758H386.294V269.803H346.403ZM387.109 269.803V309.758H427.001V269.803H387.109ZM427.815 269.803V309.758H467.705V269.803H427.815ZM468.521 269.803V309.758H508.412V269.803H468.521ZM509.228 269.803V309.758H549.067V269.803H509.228ZM590.589 269.803V309.758H630.479V269.803H590.589ZM631.295 269.803V309.758H671.185V269.803H631.295ZM672 269.803V309.758H711.891V269.803H672ZM712.706 269.803V309.758H752.598V269.803H712.706ZM753.413 269.803V309.758H793.303V269.803H753.413ZM794.117 269.803V309.758H834.009V269.803H794.117ZM834.824 269.803V309.758H874.715V269.803H834.824ZM875.53 269.803V309.758H915.42V269.803H875.53ZM916.235 269.803V309.758H956.126V269.803H916.235ZM956.941 269.803V309.758H996.833V269.803H956.941ZM997.647 269.803V309.758H1037.54V269.803H997.647ZM1038.35 269.803V309.758H1078.24V269.803H1038.35ZM1079.06 269.803V309.758H1118.95V269.803H1079.06ZM1119.77 269.803V309.758H1159.66V269.803H1119.77ZM1160.47 269.803V309.758H1200.36V269.803H1160.47ZM1201.18 269.803V309.758H1241.07V269.803H1201.18ZM1241.88 269.803V309.758H1281.77V269.803H1241.88ZM1282.59 269.803V309.758H1322.48V269.803H1282.59ZM1323.29 269.803V309.758H1363.19V269.803H1323.29ZM549.934 269.803V309.758H589.773V269.803H549.934ZM-264.185 229.032V268.986H-224.294V229.032H-264.185ZM-223.479 229.032V268.986H-183.587V229.032H-223.479ZM-182.772 229.032V268.986H-142.883V229.032H-182.772ZM-142.067 229.032V268.986H-102.176V229.032H-142.067ZM-101.36 229.032V268.986H-61.4697V229.032H-101.36ZM-60.6543 229.032V268.986H-20.7646V229.032H-60.6543ZM-19.9492 229.032V268.986H19.9414V229.032H-19.9492ZM20.7568 229.032V268.986H60.6475V229.032H20.7568ZM61.4629 229.032V268.986H101.353V229.032H61.4629ZM102.168 229.032V268.986H142.059V229.032H102.168ZM142.874 229.032V268.986H182.766V229.032H142.874ZM183.581 229.032V268.986H223.471V229.032H183.581ZM224.286 229.032V268.986H264.177V229.032H224.286ZM264.992 229.032V268.986H304.883V229.032H264.992ZM305.698 229.032V268.986H345.588V229.032H305.698ZM346.403 229.032V268.986H386.294V229.032H346.403ZM387.109 229.032V268.986H427.001V229.032H387.109ZM427.815 229.032V268.986H467.705V229.032H427.815ZM468.521 229.032V268.986H508.412V229.032H468.521ZM509.228 229.032V268.986H549.067V229.032H509.228ZM590.589 229.032V268.986H630.479V229.032H590.589ZM631.295 229.032V268.986H671.185V229.032H631.295ZM672 229.032V268.986H711.891V229.032H672ZM712.706 229.032V268.986H752.598V229.032H712.706ZM753.413 229.032V268.986H793.303V229.032H753.413ZM794.117 229.032V268.986H834.009V229.032H794.117ZM834.824 229.032V268.986H874.715V229.032H834.824ZM875.53 229.032V268.986H915.42V229.032H875.53ZM916.235 229.032V268.986H956.126V229.032H916.235ZM956.941 229.032V268.986H996.833V229.032H956.941ZM997.647 229.032V268.986H1037.54V229.032H997.647ZM1038.35 229.032V268.986H1078.24V229.032H1038.35ZM1079.06 229.032V268.986H1118.95V229.032H1079.06ZM1119.77 229.032V268.986H1159.66V229.032H1119.77ZM1160.47 229.032V268.986H1200.36V229.032H1160.47ZM1201.18 229.032V268.986H1241.07V229.032H1201.18ZM1241.88 229.032V268.986H1281.77V229.032H1241.88ZM1282.59 229.032V268.986H1322.48V229.032H1282.59ZM1323.29 229.032V268.986H1363.19V229.032H1323.29ZM549.934 229.032V268.986H589.773V229.032H549.934ZM-264.185 188.26V228.216H-224.294V188.26H-264.185ZM-223.479 188.26V228.216H-183.587V188.26H-223.479ZM-182.772 188.26V228.216H-142.883V188.26H-182.772ZM-142.067 188.26V228.216H-102.176V188.26H-142.067ZM-101.36 188.26V228.216H-61.4697V188.26H-101.36ZM-60.6543 188.26V228.216H-20.7646V188.26H-60.6543ZM-19.9492 188.26V228.216H19.9414V188.26H-19.9492ZM20.7568 188.26V228.216H60.6475V188.26H20.7568ZM61.4629 188.26V228.216H101.353V188.26H61.4629ZM102.168 188.26V228.216H142.059V188.26H102.168ZM142.874 188.26V228.216H182.766V188.26H142.874ZM183.581 188.26V228.216H223.471V188.26H183.581ZM224.286 188.26V228.216H264.177V188.26H224.286ZM264.992 188.26V228.216H304.883V188.26H264.992ZM305.698 188.26V228.216H345.588V188.26H305.698ZM346.403 188.26V228.216H386.294V188.26H346.403ZM387.109 188.26V228.216H427.001V188.26H387.109ZM427.815 188.26V228.216H467.705V188.26H427.815ZM468.521 188.26V228.216H508.412V188.26H468.521ZM509.228 188.26V228.216H549.067V188.26H509.228ZM590.589 188.26V228.216H630.479V188.26H590.589ZM631.295 188.26V228.216H671.185V188.26H631.295ZM672 188.26V228.216H711.891V188.26H672ZM712.706 188.26V228.216H752.598V188.26H712.706ZM753.413 188.26V228.216H793.303V188.26H753.413ZM794.117 188.26V228.216H834.009V188.26H794.117ZM834.824 188.26V228.216H874.715V188.26H834.824ZM875.53 188.26V228.216H915.42V188.26H875.53ZM916.235 188.26V228.216H956.126V188.26H916.235ZM956.941 188.26V228.216H996.833V188.26H956.941ZM997.647 188.26V228.216H1037.54V188.26H997.647ZM1038.35 188.26V228.216H1078.24V188.26H1038.35ZM1079.06 188.26V228.216H1118.95V188.26H1079.06ZM1119.77 188.26V228.216H1159.66V188.26H1119.77ZM1160.47 188.26V228.216H1200.36V188.26H1160.47ZM1201.18 188.26V228.216H1241.07V188.26H1201.18ZM1241.88 188.26V228.216H1281.77V188.26H1241.88ZM1282.59 188.26V228.216H1322.48V188.26H1282.59ZM1323.29 188.26V228.216H1363.19V188.26H1323.29ZM549.934 188.26V228.216H589.773V188.26H549.934ZM-264.185 147.488V187.443H-224.294V147.488H-264.185ZM-223.479 147.488V187.443H-183.587V147.488H-223.479ZM-182.772 147.488V187.443H-142.883V147.488H-182.772ZM-142.067 147.488V187.443H-102.176V147.488H-142.067ZM-101.36 147.488V187.443H-61.4697V147.488H-101.36ZM-60.6543 147.488V187.443H-20.7646V147.488H-60.6543ZM-19.9492 147.488V187.443H19.9414V147.488H-19.9492ZM20.7568 147.488V187.443H60.6475V147.488H20.7568ZM61.4629 147.488V187.443H101.353V147.488H61.4629ZM102.168 147.488V187.443H142.059V147.488H102.168ZM142.874 147.488V187.443H182.766V147.488H142.874ZM183.581 147.488V187.443H223.471V147.488H183.581ZM224.286 147.488V187.443H264.177V147.488H224.286ZM264.992 147.488V187.443H304.883V147.488H264.992ZM305.698 147.488V187.443H345.588V147.488H305.698ZM346.403 147.488V187.443H386.294V147.488H346.403ZM387.109 147.488V187.443H427.001V147.488H387.109ZM427.815 147.488V187.443H467.705V147.488H427.815ZM468.521 147.488V187.443H508.412V147.488H468.521ZM509.228 147.488V187.443H549.067V147.488H509.228ZM590.589 147.488V187.443H630.479V147.488H590.589ZM631.295 147.488V187.443H671.185V147.488H631.295ZM672 147.488V187.443H711.891V147.488H672ZM712.706 147.488V187.443H752.598V147.488H712.706ZM753.413 147.488V187.443H793.303V147.488H753.413ZM794.117 147.488V187.443H834.009V147.488H794.117ZM834.824 147.488V187.443H874.715V147.488H834.824ZM875.53 147.488V187.443H915.42V147.488H875.53ZM916.235 147.488V187.443H956.126V147.488H916.235ZM956.941 147.488V187.443H996.833V147.488H956.941ZM997.647 147.488V187.443H1037.54V147.488H997.647ZM1038.35 147.488V187.443H1078.24V147.488H1038.35ZM1079.06 147.488V187.443H1118.95V147.488H1079.06ZM1119.77 147.488V187.443H1159.66V147.488H1119.77ZM1160.47 147.488V187.443H1200.36V147.488H1160.47ZM1201.18 147.488V187.443H1241.07V147.488H1201.18ZM1241.88 147.488V187.443H1281.77V147.488H1241.88ZM1282.59 147.488V187.443H1322.48V147.488H1282.59ZM1323.29 147.488V187.443H1363.19V147.488H1323.29ZM549.934 147.488V187.443H589.773V147.488H549.934ZM-264.185 106.718V146.671H-224.294V106.718H-264.185ZM-223.479 106.718V146.671H-183.587V106.718H-223.479ZM-182.772 106.718V146.671H-142.883V106.718H-182.772ZM-142.067 106.718V146.671H-102.176V106.718H-142.067ZM-101.36 106.718V146.671H-61.4697V106.718H-101.36ZM-60.6543 106.718V146.671H-20.7646V106.718H-60.6543ZM-19.9492 106.718V146.671H19.9414V106.718H-19.9492ZM20.7568 106.718V146.671H60.6475V106.718H20.7568ZM61.4629 106.718V146.671H101.353V106.718H61.4629ZM102.168 106.718V146.671H142.059V106.718H102.168ZM142.874 106.718V146.671H182.766V106.718H142.874ZM183.581 106.718V146.671H223.471V106.718H183.581ZM224.286 106.718V146.671H264.177V106.718H224.286ZM264.992 106.718V146.671H304.883V106.718H264.992ZM305.698 106.718V146.671H345.588V106.718H305.698ZM346.403 106.718V146.671H386.294V106.718H346.403ZM387.109 106.718V146.671H427.001V106.718H387.109ZM427.815 106.718V146.671H467.705V106.718H427.815ZM468.521 106.718V146.671H508.412V106.718H468.521ZM509.228 106.718V146.671H549.067V106.718H509.228ZM590.589 106.718V146.671H630.479V106.718H590.589ZM631.295 106.718V146.671H671.185V106.718H631.295ZM672 106.718V146.671H711.891V106.718H672ZM712.706 106.718V146.671H752.598V106.718H712.706ZM753.413 106.718V146.671H793.303V106.718H753.413ZM794.117 106.718V146.671H834.009V106.718H794.117ZM834.824 106.718V146.671H874.715V106.718H834.824ZM875.53 106.718V146.671H915.42V106.718H875.53ZM916.235 106.718V146.671H956.126V106.718H916.235ZM956.941 106.718V146.671H996.833V106.718H956.941ZM997.647 106.718V146.671H1037.54V106.718H997.647ZM1038.35 106.718V146.671H1078.24V106.718H1038.35ZM1079.06 106.718V146.671H1118.95V106.718H1079.06ZM1119.77 106.718V146.671H1159.66V106.718H1119.77ZM1160.47 106.718V146.671H1200.36V106.718H1160.47ZM1201.18 106.718V146.671H1241.07V106.718H1201.18ZM1241.88 106.718V146.671H1281.77V106.718H1241.88ZM1282.59 106.718V146.671H1322.48V106.718H1282.59ZM1323.29 106.718V146.671H1363.19V106.718H1323.29ZM549.934 106.718V146.671H589.773V106.718H549.934Z" fill="#0C88E1"/>
</g>
<defs>
<clipPath id="clip0_8058_16102">
<rect width="1100" height="439" fill="white"/>
</clipPath>
</defs>
</svg>
