<svg width="24" height="24" viewBox="0 0 24 24" fill="none" xmlns="http://www.w3.org/2000/svg">
<path d="M9.90232 0.061697C4.25707 1.04884 0.0925451 5.95373 0 11.6915V12.3085L10.3342 6.13882V0L9.90232 0.061697Z" fill="white"/>
<path d="M24 11.8458C23.9691 6.04628 19.8046 1.07969 14.0976 0.0616969L13.6658 0V6.20052L24 12.4627V11.8458Z" fill="white"/>
<path d="M0.771342 16.1354C1.6351 18.3873 3.11582 20.3308 5.09011 21.7189C7.1261 23.138 9.50143 23.9092 12.0001 23.9092C14.468 23.9092 16.8433 23.1688 18.8485 21.7498C20.8228 20.3925 22.3035 18.4799 23.1672 16.2588L23.2598 15.9811L11.9693 9.13281L0.647949 15.8886L0.771342 16.1354Z" fill="white"/>
</svg>
